<svg fill="none" height="29" viewBox="0 0 28 29" width="28" xmlns="http://www.w3.org/2000/svg"><circle cx="14" cy="14.1943" fill="#e3b873" r="14"/><g stroke="#fff" stroke-width="1.5"><path d="m17 8.59375h-6c-1.65684 0-2.99999 1.34315-2.99999 3.00005v6c0 1.6568 1.34315 3 2.99999 3h6c1.6569 0 3-1.3432 3-3v-6c0-1.6569-1.3431-3.00005-3-3.00005z"/><path d="m16.4 14.2159c.0741.4994-.0112 1.0094-.2437 1.4574-.2325.4481-.6004.8115-1.0513 1.0384-.4509.227-.9619.306-1.4603.2258s-.9588-.3155-1.3158-.6725c-.3569-.3569-.5922-.8173-.6724-1.3157s-.0012-1.0094.2257-1.4603c.227-.451.5903-.8188 1.0384-1.0513s.9581-.3178 1.4574-.2438c.5094.0756.9809.3129 1.345.677.3642.3641.6015.8357.677 1.345z" stroke-linecap="round" stroke-linejoin="round"/></g></svg>