<svg fill="none" height="33" viewBox="0 0 33 33" width="33" xmlns="http://www.w3.org/2000/svg"><g fill="#fff" stroke="#fff"><path clip-rule="evenodd" d="m3.25031 1.25443c0-.2109.17823-.381871.39809-.381871h28.6631c.2199 0 .3981.170971.3981.381871v27.62207c0 .2109-.1782.3819-.3981.3819s-.3981-.171-.3981-.3819v-27.2402h-28.265c-.21986 0-.39809-.17097-.39809-.38187z" fill-rule="evenodd" stroke-linecap="round" stroke-linejoin="round" stroke-width=".5"/><path d="m3.6681 29.4348h.125v-.125l-.00001-23.75868 1.62588 1.62587c.20305.20306.53227.20306.73533 0 .20305-.20305.20305-.53227 0-.73533l-2.5135-2.5135c-.20305-.20305-.53227-.20305-.73533 0l-2.513494 2.5135c-.203056.20306-.203056.53228 0 .73533.203057.20306.532275.20306.735334 0l1.62587-1.62587v23.75868.125h.125z" stroke-width=".25"/><path d="m2.7522 29.704v.125h.125 23.8831l-1.6341 1.6257c-.2042.2031-.2042.5327 0 .7358.2038.2027.534.2027.7378 0l2.5266-2.5135c.2041-.2031.2041-.5327 0-.7358l-2.5266-2.5135c-.2038-.2028-.534-.2028-.7378 0-.2042.2031-.2042.5327 0 .7358l1.6341 1.6256h-23.8831-.125v.125z" stroke-width=".25"/><g clip-rule="evenodd" fill-rule="evenodd" stroke-linecap="round" stroke-linejoin="round" stroke-width=".5"><path d="m14.1624.988239c.1543.154241.1543.404311 0 .558551l-4.73945 4.7395c-.15424.15424-.40431.15424-.55855 0s-.15424-.40432 0-.55856l4.7395-4.739491c.1542-.154241.4043-.154241.5585 0z"/><path d="m32.4623 19.8149c.1542.1542.1542.4043 0 .5586l-4.3446 4.3445c-.1542.1542-.4043.1542-.5585 0-.1543-.1543-.1543-.4043 0-.5586l4.3445-4.3445c.1542-.1542.4043-.1542.5586 0z"/><path d="m20.0851.986466c.1552.153254.1568.403324.0035.558544l-10.26885 10.40059c-.15326.1552-.40333.1568-.55855.0035-.15522-.1532-.15681-.4033-.00355-.5585l10.26885-10.400576c.1533-.15522.4034-.156813.5586-.003558z"/><path d="m32.5938 13.2316c.1543.1543.1543.4044 0 .5586l-10.0056 10.0056c-.1542.1542-.4043.1542-.5585 0-.1543-.1542-.1543-.4043 0-.5586l10.0056-10.0056c.1542-.1542.4043-.1542.5585 0z"/><path d="m26.4084 1.12209c.153.15548.151.40555-.0045.55854l-16.45654 16.19327c-.15548.153-.40554.151-.55853-.0045s-.15098-.4056.0045-.5585l16.45657-16.19331c.1555-.152994.4055-.150977.5585.0045z"/><path d="m32.5939 7.04439c.1543.15424.1543.40432 0 .55856l-16.5882 16.58825c-.1542.1542-.4043.1542-.5585 0-.1543-.1543-.1543-.4043 0-.5586l16.5882-16.58821c.1542-.15424.4043-.15424.5585 0z"/><path d="m32.3306 1.11983c.1543.15424.1543.40431 0 .55856l-22.64422 22.64421c-.15424.1543-.40431.1543-.55855 0-.15424-.1542-.15424-.4043 0-.5585l22.64427-22.64427c.1542-.15424.4043-.15424.5585 0z"/></g></g></svg>