<svg fill="none" height="33" viewBox="0 0 34 33" width="34" xmlns="http://www.w3.org/2000/svg"><g fill="#131313"><path d="m24.6002 3.07222c-.2628-1.25326-1.404-2.199661-2.7689-2.199661-.312 0-.5652.245811-.5652.549911 0 .30411.2532.54992.5652.54992.9348 0 1.6956.74019 1.6956 1.64975s-.7608 1.64975-1.6956 1.64975c-.312 0-.5652.24581-.5652.54991 0 .30411.2532.54992.5652.54992 1.3644 0 2.5061-.94641 2.7689-2.19967h7.4046v4.94925h-30.52038v-4.94925h7.91268 1.6956c.312 0 .5652-.24581.5652-.54991s-.2532-.54992-.5652-.54992h-1.0264c.234-.639.8557-1.09983 1.5916-1.09983.9348 0 1.6955.74019 1.6955 1.64975s-.7607 1.64975-1.6955 1.64975c-.312 0-.5652.24581-.5652.54991 0 .30411.2532.54992.5652.54992 1.5582 0 2.8259-1.23346 2.8259-2.74958s-1.2677-2.749581-2.8259-2.749581c-1.3644 0-2.5061.946401-2.76891 2.199661h-8.534956v7.14888 21.9967h32.781066v-21.9967-7.14888zm7.4046 28.04568h-30.52038v-20.8968h30.52038z"/><path d="m15.049 1.97239c.9349 0 1.6956.74019 1.6956 1.64975s-.7607 1.64975-1.6956 1.64975c-.3119 0-.5651.24581-.5651.54991 0 .30411.2532.54992.5651.54992 1.5583 0 2.826-1.23346 2.826-2.74958s-1.2677-2.749581-2.826-2.749581c-.3119 0-.5651.245811-.5651.549911 0 .30411.2532.54992.5651.54992z"/><path d="m18.4402 1.97239c.9348 0 1.6956.74019 1.6956 1.64975s-.7608 1.64975-1.6956 1.64975c-.312 0-.5652.24581-.5652.54991 0 .30411.2532.54992.5652.54992 1.5582 0 2.826-1.23346 2.826-2.74958s-1.2678-2.749581-2.826-2.749581c-.312 0-.5652.245811-.5652.549911 0 .30411.2532.54992.5652.54992z"/><path d="m5.4408 14.6201h12.4342c.312 0 .5652-.2458.5652-.5499s-.2532-.5499-.5652-.5499h-12.4342c-.31198 0-.56519.2458-.56519.5499s.25321.5499.56519.5499z"/><path d="m28.0485 22.3191h-8.4779c-.312 0-.5652.2458-.5652.5499s.2532.5499.5652.5499h8.4779c.312 0 .5652-.2458.5652-.5499s-.2532-.5499-.5652-.5499z"/><path d="m5.4408 19.0198h5.6519c.312 0 .5652-.2459.5652-.55s-.2532-.5499-.5652-.5499h-5.6519c-.31198 0-.56519.2458-.56519.5499s.25321.55.56519.55z"/><path d="m28.0485 26.7185h-5.6519c-.312 0-.5652.2458-.5652.5499s.2532.5499.5652.5499h5.6519c.312 0 .5652-.2458.5652-.5499s-.2532-.5499-.5652-.5499z"/><path d="m16.1794 18.4698c0 .3041.2532.55.5652.55h8.4779c.312 0 .5652-.2459.5652-.55s-.2532-.5499-.5652-.5499h-8.4779c-.312 0-.5652.2458-.5652.5499z"/><path d="m14.32 18.8605c.1017-.1045.1639-.2475.1639-.3905 0-.1435-.0622-.2865-.1639-.3904-.2091-.2035-.5935-.2035-.8026 0-.1017.1039-.1639.2469-.1639.3904 0 .143.0622.286.1639.3905.1074.1039.2544.1595.4013.1595.147 0 .2939-.0556.4013-.1595z"/><path d="m7.70154 22.869c0 .3041.2532.5499.56519.5499h8.47787c.312 0 .5652-.2458.5652-.5499s-.2532-.5499-.5652-.5499h-8.47787c-.31199 0-.56519.2458-.56519.5499z"/><path d="m5.4408 23.4194c.14695 0 .2939-.0605.40129-.1594.10173-.1045.1639-.2475.1639-.3905 0-.1435-.06217-.2865-.1639-.3849-.20912-.209-.59345-.209-.80257-.0055-.10174.1039-.16391.2469-.16391.3904 0 .143.06217.286.16391.3905.10738.0989.24868.1594.40128.1594z"/><path d="m28.0485 19.02c.1469 0 .2939-.0556.4013-.1595.1073-.1045.1639-.2475.1639-.3905 0-.1435-.0566-.2865-.1639-.3904-.2148-.2035-.5935-.2035-.8026 0-.1018.1039-.1639.2469-.1639.3904 0 .143.0621.286.1639.3905.1074.1039.2543.1595.4013.1595z"/><path d="m19.5706 26.7185h-14.1298c-.31198 0-.56519.2458-.56519.5499s.25321.5499.56519.5499h14.1298c.312 0 .5652-.2458.5652-.5499s-.2532-.5499-.5652-.5499z"/></g></svg>