<svg fill="none" height="30" viewBox="0 0 34 30" width="34" xmlns="http://www.w3.org/2000/svg"><g fill="#e3b873"><path d="m22.4261 9.43274-4.8455-1.45375c-.3637-.10852-.7376-.14673-1.108-.1332v-.01247h-5.8893l-10.443652-3.47053.031575 14.67491 2.997977 1.4986 1.77506-4.3395 2.59308 1.0375.67235-1.6804.97376.9738-.90849.9087c-.31575.3158-.4967.7525-.4967 1.1993 0 .9144.72913 1.6578 1.63603 1.6899.03157.8862.74401 1.5987 1.63021 1.6302.0316.8862.744 1.5986 1.6302 1.6302.0326.9069.7755 1.636 1.6901 1.636.4466 0 .8836-.1809 1.1991-.4967l.9087-.9084.3651.3651c.3158.3157.7525.4967 1.1993.4967.9146 0 1.6578-.7292 1.6899-1.6361.8862-.0316 1.5986-.744 1.6302-1.6302.8862-.0315 1.5986-.744 1.6302-1.6302.9069-.0326 1.6363-.7755 1.6363-1.6899 0-.0772-.0125-.1533-.0228-.23l.7798-.7798.6301 1.2608 3.4133-1.7068 2.0626 3.938 2.3747-1.5824v-14.04478zm-19.81994 9.60706-1.3492-.6747-.02733-12.49496 5.95455 1.9791zm4.32596-3.2184-1.57686-.6305 2.86265-6.99832 1.55776.51793zm1.93294 2.8143c0-.1605.06447-.3173.17803-.4311l.95546-.9552c.11355-.1136.27065-.1783.43085-.1783.336 0 .6092.2735.6092.6092 0 .1602-.0647.3173-.1783.4309l-.95515.9554c-.11356.1136-.27064.1781-.4309.1781-.3359 0-.60919-.2733-.60919-.609zm1.63014 1.6302c0-.1605.0645-.3173.1781-.4311l.9554-.9552c.1136-.1136.2707-.1783.4309-.1783.3359 0 .6092.2735.6092.6092 0 .1602-.0647.3173-.1783.4309l-.9552.9554c-.1135.1136-.2706.1781-.4309.1781-.3359 0-.6092-.2733-.6092-.609zm1.6302 1.6302c0-.1605.0645-.3173.1781-.4311l.9554-.9552c.1136-.1136.2707-.1783.4309-.1783.3359 0 .6092.2735.6092.6092 0 .1602-.0647.3173-.1783.4309l-.9552.9554c-.1135.1136-.2706.1781-.4309.1781-.3359 0-.6092-.2733-.6092-.609zm3.6255 1.1057-.9552.9554c-.1135.1136-.2706.1781-.4309.1781-.3359 0-.6092-.2733-.6092-.609 0-.1605.0645-.3173.1781-.4311l.9554-.9552c.1136-.1136.2707-.1783.4309-.1783.3359 0 .6092.2735.6092.6092 0 .1602-.0647.3173-.1783.4309zm7.1767-4.3005c-.1603 0-.3173-.0645-.4309-.1781l-4.5531-4.5533-.7684.7684 4.5531 4.5531c.1136.1138.1783.2706.1783.4311 0 .3357-.2733.609-.6092.609-.1603 0-.3173-.0645-.4309-.1781l-4.5531-4.5533-.7684.7684 4.5531 4.5531c.1136.1138.1783.2706.1783.4311 0 .3357-.2733.609-.6092.609-.1603 0-.3173-.0645-.4309-.1781l-4.5531-4.5533-.7684.7684 4.5531 4.5531c.1136.1138.1783.2706.1783.4311 0 .3357-.2733.609-.6092.609-.1602 0-.3173-.0645-.4309-.1781l-.6129-.6132c.0109-.0758.0228-.152.0228-.2297 0-.9146-.7294-1.6578-1.6363-1.6899-.0315-.8862-.744-1.5986-1.6302-1.6302-.0315-.8862-.744-1.5986-1.6302-1.6302-.0326-.9069-.7753-1.6363-1.6899-1.6363-.0772 0-.1533.0125-.2297.0228l-1.55142-1.5514 2.21472-5.53558h3.211l-1.9953 1.99558c-.3207.32-.4967.7461-.4967 1.1993 0 .935.7607 1.6957 1.696 1.6957.4466 0 .8836-.181 1.1991-.4967l1.4397-1.44c.2945-.2934.8132-.3048 1.1199-.0238l1.2704 1.1645c.4222.3869.8913.7087 1.3933.9608l3.6581 3.6857c.1136.1138.1783.2706.1783.4311 0 .3357-.2733.609-.6092.609zm1.1526-1.8552-2.2336-2.2506c.1996.0189.4007.0303.6034.0303v-1.0868c-1.2651 0-2.4758-.471-3.4082-1.3259l-1.2706-1.164c-.7172-.6585-1.9338-.6323-2.6223.0571l-1.4394 1.4397c-.1141.113-.2712.178-.4315.178-.3359 0-.6092-.2733-.6092-.6089 0-.1632.0629-.3158.1781-.4312l2.0714-2.07117c.6087-.60867 1.5227-.8403 2.3498-.59248l4.8004 1.43995 2.7989 5.5987zm2.4164.0393-3.2947-6.5898 2.4063-.94406 3.3114 6.32206zm6.278 1.5253-.886.5907-5.2626-10.04865 6.1486-2.41159z"/><circle cx="19.6667" cy="1.57397" r=".485591"/><circle cx="7.40991" cy="24.5032" r=".485591"/><circle cx="9.46801" cy="26.1916" r=".485591"/><circle cx="11.8166" cy="27.4304" r=".485591"/><circle cx="14.3655" cy="28.2229" r=".485591"/><circle cx="22.2141" cy="2.34692" r=".485591"/><circle cx="24.5632" cy="3.60131" r=".485591"/></g><path d="m26.8305 2.89941v2.8017h-2.8334" stroke="#e3b873" stroke-linecap="round" stroke-linejoin="round"/><path d="m5.01039 24.1865v-2.2668h2.26402" stroke="#e3b873" stroke-linecap="round" stroke-linejoin="round"/><path d="m7.80078 4.88243c1.53512-1.33582 2.51162-1.95038 4.35112-2.66863 1.9514-.76194 3.2718-.94086 5.3922-.94085" stroke="#e3b873" stroke-linecap="round"/><path d="m28.4046 22.3709c-1.1413 1.7802-3.267 3.5184-4.9957 4.4728-1.8339 1.0126-3.7987 1.5831-6.4158 1.7195" stroke="#e3b873" stroke-linecap="round"/></svg>