<svg fill="none" height="29" viewBox="0 0 28 29" width="28" xmlns="http://www.w3.org/2000/svg"><g fill="#e3b873"><path d="m21.8924 22.0529c-.7466.7-.7466 1.8667 0 2.6134.3734.3733.84.56 1.3067.56.4666 0 .9333-.1867 1.3066-.56.7467-.7.7467-1.8667 0-2.6134-.6999-.7466-1.8666-.7466-2.6133 0zm1.96 2.0067c-.3733.3733-.9333.3733-1.3066 0-.3733-.3734-.3734-.9334 0-1.3067.1866-.1866.42-.28.6533-.28.2334 0 .4667.0934.6534.28.3733.3734.3733.9334-.0001 1.3067z"/><path d="m27.6796 22.6129-8.4-8.4 3.3134-3.3134h.0001l1.9599-1.95996.0001-.00006 2.8466-2.84659c.7933-.79335.7933-2.1 0-2.89335l-2.38-2.380001c-.3733-.373297-.8867-.606648-1.4467-.606648s-1.0734.233351-1.4466.606648l-2.8467 2.846651-1.96 1.96-3.3133 3.31335-8.30675-8.306649c-.51336-.513352-1.44665-.513352-1.96 0l-3.313302 3.313349c-.56.51335-.56 1.4 0 1.96l.980002.98 2.66 2.66 2.6133 2.61326s0 0 .00005.0001l2.0533 2.0533-7.49143 7.4914c-.13967.0616-.21497.1876-.255222.3486l-.98000034 5.6c0 .1866.04664844.3266.14000034.42.093297.0933.186648.14.326648.14h.093352l5.383712-.9953c.03724.0098.07744.0153.12294.0153.14 0 .28-.0467.32665-.14l7.60665-7.6067.6066.6067h.0001l.0001.0001 1.3065 1.3066h.0001l.0001.0001 6.4866 6.4866c.2333.2333.5133.3266.7933.3266s.56-.0933.7467-.3266l3.7333-3.7334c.42-.42.4199-1.12-.0001-1.54zm-21.6066 3.4533-1.63286-1.6328 15.51576-15.471 1.6105 1.6105zm16.7066-24.59331c.42-.42 1.1667-.42 1.5867 0l2.38 2.38c.42.42.42 1.16665 0 1.58665l-2.52 2.52-3.9667-3.96665zm-3.1732 3.17335 1.9833 1.98335 1.9833 1.9833-1.3066 1.30665-3.9667-3.96665zm-10.61675 8.51666 1.00335-1.0034c.1866-.1866.1866-.4666 0-.6533-.18665-.1867-.46665-.1867-.65335 0l-1.00335 1.0033-.67665-.6766 1.63335-1.6334c.18665-.1866.18665-.46661 0-.65331-.18665-.18671-.46665-.18665-.65335 0l-1.63336 1.63331-.65335-.6533.98-.98001c.18665-.18665.18665-.46665 0-.65335-.18665-.18671-.46665-.18665-.65335 0l-.98.98-.65335-.65336 1.63335-1.63335c.18665-.18665.18665-.46665 0-.65335s-.46665-.18665-.65335 0l-1.63324 1.63346-.7-.7.98-.98c.18665-.18665.18665-.46665 0-.65335s-.46665-.18665-.65335 0l-.98.98-.65336-.65335 1.63336-1.63335c.18664-.18665.18664-.46665 0-.65335-.18665-.18671-.46665-.18665-.65336 0l-1.63329 1.6334-.65336-.65335c-.186644-.18665-.186644-.46665 0-.65335l3.31336-3.3133c.09335-.09335.18665-.14.32665-.14.09335 0 .23335.04665.32664.14l8.30671 8.30665-3.96665 3.96661zm8.65675-6.51001 1.6328 1.63286-15.51571 15.47095-1.61049-1.6105zm-15.86675 16.42661 1.53103 1.5311c.02329.0533.05725.1039.10232.1489l1.68689 1.6869-4.02019.6931zm25.24675.42-3.7334 3.7334c-.0466.0466-.1866.0466-.2333 0l-4.8301-4.83 1.6567-1.6567c.1866-.1866.1866-.4666 0-.6533-.1867-.1867-.4667-.1867-.6534 0l-1.6566 1.6566-.6767-.6766.9801-.98c.1866-.1867.1866-.4667 0-.6534-.1867-.1866-.4667-.1866-.6534 0l-.98.98-.6534-.6533 1.6334-1.6334c.1866-.1866.1866-.4666 0-.6533-.1867-.1867-.4667-.1867-.6534 0l-1.6333 1.6334-.28-.28 3.9667-3.9667 8.4 8.4c.0467.0467.0467.1867.0001.2333z"/></g></svg>