<svg fill="none" height="28" viewBox="0 0 28 28" width="28" xmlns="http://www.w3.org/2000/svg"><path d="m26.4056 21.1434c-.5815-.4092-1.2527-.629-1.9306-.6649-2.555-1.6731-4.2287-2.929-5.2058-3.9061l-3.0017-3.0017 1.8215-2.0389c.3452.1949.716.3233 1.0869.3762.2798.0466.4664.0466.653.0466.3732 0 .4664 0 .8396.3265-.1866.14-.2799.3732-.2799.6064s.0933.5131.2799.6996l1.6325 1.6326c.2332.2798.6063.4197.9795.4197s.7463-.1399.9795-.4664l3.3117-3.3117c.2799-.2332.4198-.6063.4198-.9795 0-.3731-.1399-.6996-.4198-.97948l-1.6325-1.63253c-.1866-.18655-.4198-.27986-.6531-.27986-.2332 0-.4664.13993-.653.27986-.3731-.32648-.3731-.41979-.3731-.79295 0-.18656 0-.41979-.0933-.69965-.0933-.65303-.4198-1.30599-.9329-1.81909l-1.6792-1.67916c-.9795-.9795-1.4459-1.44592-2.7053-2.00564-2.7053-1.259365-5.4572-1.02613-9.46857.79296-.23323.0933-.32649.27986-.27986.51309s.23323.37316.46641.37316h.60632c2.0523 0 3.1251 0 4.9909 1.86572.8169.81695.8405 2.06959.1085 2.99121-.0986.01487-.1737.05915-.2485.13387l-2.0719 2.31259-1.5662-1.56627c-1.72149-1.72146-2.93232-3.35017-3.86422-5.16373-.04892-.91769-.41717-1.77629-1.07997-2.4391-.7929-.792896-1.91234-1.1660603-3.03178-1.0727555-.13993.046625-.27986.1399295-.32648.2332345-.09331.13993-.09331.326484 0 .466414l1.30599 2.332177c-.27986.60635-.93288.97951-1.58585.93289l-1.35267-2.23893c-.04663-.13993-.23324-.23324-.37317-.23324-.139928-.04662-.279858.04663-.373163.18656-1.119438 1.67915-.69964847 3.91803.979513 5.08409.57852.41323 1.23028.64302 1.89036.69014.00738.00312.01432.00694.02197.00951 1.81909.93288 3.45162 2.14557 5.1774 3.87141l1.70587 1.6671-9.914988 11.0666c-.373164.3731-.55971884.8862-.55971884 1.3993s.18655484.9795.55971884 1.3526l.653028.6531c.37316.3264.83957.513 1.30599.513.46641 0 .97951-.1865 1.35267-.5597l9.9037-11.0857 2.8765 2.8765c.9786.9786 2.2366 2.7021 3.9134 5.217.0601.8977.4275 1.7358 1.0775 2.3858.6996.6997 1.6325 1.0728 2.612 1.0728h.3732c.1399 0 .2798-.0933.3731-.2332s.0933-.3265 0-.4664l-1.3526-2.2855c.3265-.6063.9329-.9795 1.6325-.9329l1.306 2.2389c.0466.1399.2332.2332.3732.2332.1865-.0466.3264-.0933.4197-.2332 1.1194-1.6792.653-3.9181-.9795-5.0842zm-10.6347-17.07139c-1.4926-1.44593-2.612-1.91239-3.8714-2.05232 2.6587-.83958 4.6177-.79296 6.5767.0933 1.1195.46642 1.4926.83958 2.4721 1.81909l1.6792 1.67915c.3731.37317.6063.83958.653 1.306.0466.23323.0466.41979.0466.55972 0 .51309.0467.8862.6064 1.44592.1865.18655.4664.27986.6996.27986.2799 0 .5131-.09331.653-.27986l1.6326 1.63253c.0933.0933.1399.1866.1399.3265s-.0466.2332-.1399.3265l-3.3117 3.3117c-.1866.1865-.4664.1865-.653 0l-1.6326-1.6326c.1866-.1399.2799-.3731.2333-.653 0-.2332-.0933-.5131-.2799-.6996-.5597-.5598-.9329-.6064-1.4459-.6064-.1399 0-.3265 0-.5597-.0466-.5131-.0466-.9329-.2799-1.306-.653l-2.0057-2.00568c1.0261-1.25931.9329-3.03177-.1866-4.15121zm-14.64597-1.11944.97951 1.67916c.0933.13993.23323.23323.37316.23323h.23324c1.07281.04663 2.05232-.51309 2.51873-1.44592l.09331-.23324c.0933-.13993.0933-.27986 0-.41979l-1.02619-1.772457c.55972.093307 1.07281.373167 1.4926.792957.4809.52096.7888 1.17983.807 1.88757-.00902.03591-.0141.07456-.0141.11812 0 .21602-.02607.42673-.07434.62985-.17595.67538-.59787 1.26423-1.18503 1.65571-.93288.60634-2.19225.60634-3.12508-.04663-.9795-.69976-1.399294-1.95912-1.07281-3.07856zm8.30248 7.74273c-1.3993-1.44589-2.79859-2.56533-4.2912-3.45159.23324-.0933.5131-.23323.74628-.37316.69965-.46642 1.16606-1.07282 1.44592-1.81909.8862 1.4926 2.00564 2.8919 3.40489 4.2912l1.6021 1.60204-1.2563 1.4023zm-6.20353 16.0453c-.37317.3732-.97951.4198-1.35268.0467l-.65302-.6064c-.18655-.1865-.279858-.4198-.279858-.653 0-.2799.093308-.5131.326488-.7463l.26417-.2955.66871.6687c.0933.0933.18655.1399.32648.1399s.23324-.0466.32649-.1399c.18655-.1866.18655-.4664 0-.653l-.70534-.7054.61641-.6896.74195.7419c.09331.0933.18656.14.32649.14s.23323-.0467.32648-.14c.18656-.1865.18656-.4664 0-.653l-.77847-.7785 11.99752-13.42305 1.9591 1.95905-1.9249 2.1535c-.055.0233-.1036.0589-.1521.1074l-1.8657 2.0989c-.0533.0533-.0908.1143-.1136.1784zm11.19492-11.1005 1.2765-1.4288 3.0141 3.0141c.8396.8862 2.2855 2.0056 4.3844 3.4049-.2798.0933-.5597.2333-.8395.4198-.5787.3617-.9886.8639-1.2742 1.419-.0042.0079-.0081.016-.0122.024-.0169.0334-.0335.067-.0495.1007-.023.0479-.0449.0962-.0658.1451-.0144.0331-.0286.0661-.0421.0994-.0019.0048-.0038.0097-.0057.0145-.0147.0365-.0293.073-.0431.1097-.2649-.3886-.5198-.7553-.765-1.1007l.6251-.6251c.1865-.1865.1865-.4664 0-.653-.1866-.1865-.4664-.1865-.653 0l-.52.52c-.1938-.263-.3811-.5111-.5616-.7444l.4286-.4286c.1865-.1866.1865-.4664 0-.653-.1866-.1866-.4664-.1866-.653 0l-.3561.356c-.3428-.4131-.659-.7648-.9499-1.0557zm12.4998 9.3281-.9795-1.6792c-.0933-.1399-.2332-.2332-.3731-.2332h-.2333c-1.0728-.0933-2.0523.5131-2.5187 1.4459l-.0933.2332c-.0933.14-.0933.2799 0 .4198l1.0261 1.7725c-.5597-.0933-1.0728-.3732-1.4926-.793-.4718-.5111-.7767-1.1549-.8054-1.8473.008-.0341.0125-.0707.0125-.1117 0-.5909.1875-1.1441.5145-1.6127.2008-.2795.4521-.5242.7448-.7194.4664-.3265.9795-.4664 1.5393-.4664.5597 0 1.1194.1865 1.5858.5131.9797.6996 1.3995 1.9589 1.0729 3.0784z" fill="#e3b873"/></svg>