<svg fill="none" height="29" viewBox="0 0 34 29" width="34" xmlns="http://www.w3.org/2000/svg"><path d="m32.8511 9.76553-24.12053-8.936224c-.30852-.114006-.65128.043752-.76504.352514-.00025.00025-.00025.0005-.0005.00075l-2.67014 7.26814c-.11351.30877.04475.65129.35352.76479h.0005l2.7959 1.0266-.61604 1.6783c-.11325.3088.04501.6508.35377.7643l5.59276 2.0533-.411 1.1189c-.3735 1.002-.025 2.1301.8491 2.7463v3.0402h-8.01596c-.38802-.887-1.18207-1.5311-2.13037-1.7276v-1.251c0-.3291-.26651-.5958-.59578-.5958h-2.40188c-.329013 0-.595777.2667-.595777.5958v9.5317c0 .3293.266764.5958.595777.5958h2.40188c.32927 0 .59578-.2665.59578-.5958v-1.2508c.9483-.1968 1.74235-.8406 2.13037-1.7279h8.01596v.5958c0 .9871.8 1.7874 1.7871 1.7874.987 0 1.7873-.8003 1.7873-1.7874v-6.5996c.5415-.2685.9598-.7343 1.1683-1.3018l.411-1.1188 5.0333 1.8469c.0658.0242.135.0365.205.0365.2498 0 .4733-.1558.5595-.3903l.2233-.6083c1.9386.3648 3.8057-.911 4.1702-2.8494.1348-.7163.0473-1.4566-.2507-2.1216l3.6114-1.8544c.2928-.15.4085-.509.2585-.8018-.068-.13296-.1835-.23547-.3235-.28722zm-17.4464 9.38047.4933.1788c.2245.0805.46.1267.6982.137v2.1816h-1.1915zm-12.52894 8.455h-1.21056v-8.3405h1.21056zm2.38288-3.5745c-.001.7571-.47803 1.4319-1.19157 1.6854v-4.5623c.71354.2533 1.19057.9281 1.19157 1.6854zm1.21006-1.1915h10.1275v1.1915h-10.1275zm9.5318 3.5744c-.3291 0-.5958-.2668-.5958-.5958v-.5958h1.1915v.5958c0 .329-.2667.5958-.5957.5958zm2.2483-10.0263-.411 1.1188c-.227.6171-.9113.9336-1.5288.7071l-1.1206-.4105c-.6175-.2268-.9345-.9113-.7078-1.5291 0 0 0 0 0-.0003l.4113-1.118 3.0197 1.1085zm6.0033.9353-15.09976-5.5448.41127-1.1188 8.94749 3.2857c.2118.077.4493.0288.614-.1253l1.6719-1.5738 4.6872 1.7216zm4.028-2.3283c-.3775 1.0178-1.3928 1.6538-2.4731 1.549l.9205-2.5076 1.5036-.7743c.2353.5505.2528 1.1701.049 1.7329zm-2.0108-2.0599c-.0316.0027-.0628.0082-.0936.0165l-5.3115-1.9504c-.2117-.0777-.4493-.0295-.6138.1251l-1.6738 1.574-11.95789-4.3912 2.25862-6.14982 22.29017 8.25822z" fill="#e3b873"/><path d="m12.1292 8.70337-.5254 1.41993m2.8152-.5799-.5255 1.4199m2.7475-.5934-.5255 1.4199" stroke="#e3b873" stroke-linecap="round"/></svg>