<svg fill="none" height="110" viewBox="0 0 110 110" width="110" xmlns="http://www.w3.org/2000/svg" xmlns:xlink="http://www.w3.org/1999/xlink"><filter id="a" color-interpolation-filters="sRGB" filterUnits="userSpaceOnUse" height="110" width="110" x="0" y="-.000977"><feFlood flood-opacity="0" result="BackgroundImageFix"/><feColorMatrix in="SourceAlpha" type="matrix" values="0 0 0 0 0 0 0 0 0 0 0 0 0 0 0 0 0 0 127 0"/><feOffset dy="5"/><feGaussianBlur stdDeviation="10"/><feColorMatrix type="matrix" values="0 0 0 0 0.890196 0 0 0 0 0.721569 0 0 0 0 0.45098 0 0 0 0.5 0"/><feBlend in2="BackgroundImageFix" mode="normal" result="effect1_dropShadow"/><feBlend in="SourceGraphic" in2="effect1_dropShadow" mode="normal" result="shape"/></filter><mask id="b" fill="#fff"><path d="m57.4336 35.4478c-.1138-.2041-.3289-.3306-.5626-.3306h-2.8477c-.2333 0-.4488.1265-.5626.3306l-8.5424 15.3047c-.0534.096-.0816.2041-.0816.3142v.712c0 .1219.0346.241.0997.3441l3.6467 5.7736h-2.3902c-.3558 0-.6445.2884-.6445.6445 0 .3559.2887.6446.6445.6446h.0675v2.2028c0 .3562.2883.6445.6445.6445h.7788v2.2032c0 .3558.2887.6445.6446.6445h.7794v2.2005.0024.0026 4.2684c0 .3562.2887.6445.6446.6445h11.3897c.3559 0 .6446-.2883.6446-.6445v-6.4739h.7791c.3559 0 .6446-.2887.6446-.6445v-2.2032h.7791c.3558 0 .6445-.2883.6445-.6445v-2.2028h.0675c.3559 0 .6446-.2887.6446-.6446 0-.3561-.2887-.6445-.6446-.6445h-.7103c-.0007 0-.001 0-.0017 0s-.001 0-.0017 0h-1.6764l3.6466-5.7736c.0651-.1031.0997-.2222.0997-.3441v-.712c0-.1101-.0282-.2182-.0819-.3142zm-1.9863 13.7719c.4297 0 .7792.3495.7792.7792 0 .4296-.3495.7791-.7792.7791s-.7791-.3495-.7791-.7791c0-.4297.3494-.7792.7791-.7792zm6.4739 14.3714h-7.0717c-.3559 0-.6446.2887-.6446.6446 0 .3561.2887.6445.6446.6445h5.648v1.5583h-.7795c-.3558 0-.6445.2884-.6445.6445 0 .3562.2887.6446.6445.6446h.7792v2.9823h-10.1004v-2.982h.7792c.3558 0 .6445-.2884.6445-.6445 0-.3562-.2887-.6446-.6445-.6446h-.7792v-1.5586h1.6986c.3562 0 .6446-.2884.6446-.6445 0-.3559-.2884-.6446-.6446-.6446h-3.1226v-1.5583h12.9484zm1.4237-2.8473h-15.7955v-1.5583h13.5906.0014.0013 2.2022zm1.4237-9.1517-1.2844 2.0333h-1.6305c-.3558 0-.6445.2883-.6445.6445s.2887.6445.6445.6445h.8164l-1.8836 2.982h-4.695v-1.4911c0-.3559-.2883-.6446-.6445-.6446-.3558 0-.6445.2887-.6445.6446v1.4911h-4.6951l-1.8832-2.982h.8161c.3561 0 .6445-.2883.6445-.6445s-.2884-.6445-.6445-.6445h-1.6305l-1.284-2.0333v-.3579l8.2762-14.8279h.4005v11.6277c-.8255.2716-1.4237 1.0494-1.4237 1.9645 0 1.1407.9278 2.0686 2.0682 2.0686 1.1407 0 2.0685-.9279 2.0685-2.0686 0-.9151-.5982-1.6932-1.4236-1.9645v-11.6277h.4004l8.2763 14.8279z" fill="#fff"/></mask><g filter="url(#a)"><path d="m20 14.999h70v70h-70z" fill="#e3b873"/></g><g fill="#fff" stroke="#fff"><path d="m62.6292 30.9234-.1745.9686c2.9919 1.1141 5.6994 2.939 7.8849 5.3545 3.3428 3.6956 5.1838 8.4768 5.1838 13.4643 0 .08-.0645.1445-.1445.1445-.0799 0-.1446-.0647-.1446-.1445 0-9.8954-7.2298-18.1876-16.936-19.5822l-.5711-.0821v.577 1.2911c0 .08-.0645.1445-.1445.1445h-4.2711c-.0798 0-.1445-.0646-.1445-.1445v-1.2911-.577l-.5711.0821c-9.7062 1.3946-16.9363 9.6868-16.9363 19.5822 0 .0798-.0647.1445-.1446.1445-.0798 0-.1445-.0647-.1445-.1445 0-4.9875 1.841-9.7687 5.1842-13.4643 2.1851-2.4155 4.8926-4.24 7.8845-5.3542l-.1745-.9685h-7.9375-.3618l-.1131.3437c-.2064.6272-.7975 1.0796-1.4899 1.0796-.8643 0-1.5682-.7037-1.5682-1.5679s.704-1.5682 1.5682-1.5682c.6924 0 1.2835.4525 1.4898 1.0799l.1131.3438h.3619 12.3398.5v-.5-1.4911c0-.0799.0647-.1446.1445-.1446h4.2711c.08 0 .1445.0645.1445.1446v1.4908.5h.5 12.3398.3619l.1131-.3438c.2063-.6272.7974-1.0796 1.4895-1.0796.8643 0 1.5682.7038 1.5682 1.5679 0 .8643-.7037 1.5682-1.5682 1.5682-.6924 0-1.2835-.4524-1.4898-1.0799l-.1131-.3438h-.3619zm-9.173 1.3467v.5h.5 2.982.5v-.5-1.3791-.0023-.1081-.0017-.0017-1.4891-.5h-.5-2.982-.5v.5 1.6016.0003zm20.3544-1.4912c0-.7056-.5734-1.2788-1.2791-1.2788s-1.2791.5732-1.2791 1.2788c0 .7058.5733 1.2792 1.2791 1.2792s1.2791-.5734 1.2791-1.2792zm-36.7272.0003c0 .7057.5734 1.2789 1.2791 1.2789s1.2791-.5732 1.2791-1.2789c0-.7058-.5733-1.2791-1.2791-1.2791s-1.2791.5733-1.2791 1.2791z" stroke-width=".999998"/><path d="m57.4336 35.4478c-.1138-.2041-.3289-.3306-.5626-.3306h-2.8477c-.2333 0-.4488.1265-.5626.3306l-8.5424 15.3047c-.0534.096-.0816.2041-.0816.3142v.712c0 .1219.0346.241.0997.3441l3.6467 5.7736h-2.3902c-.3558 0-.6445.2884-.6445.6445 0 .3559.2887.6446.6445.6446h.0675v2.2028c0 .3562.2883.6445.6445.6445h.7788v2.2032c0 .3558.2887.6445.6446.6445h.7794v2.2005.0024.0026 4.2684c0 .3562.2887.6445.6446.6445h11.3897c.3559 0 .6446-.2883.6446-.6445v-6.4739h.7791c.3559 0 .6446-.2887.6446-.6445v-2.2032h.7791c.3558 0 .6445-.2883.6445-.6445v-2.2028h.0675c.3559 0 .6446-.2887.6446-.6446 0-.3561-.2887-.6445-.6446-.6445h-.7103c-.0007 0-.001 0-.0017 0s-.001 0-.0017 0h-1.6764l3.6466-5.7736c.0651-.1031.0997-.2222.0997-.3441v-.712c0-.1101-.0282-.2182-.0819-.3142zm-1.9863 13.7719c.4297 0 .7792.3495.7792.7792 0 .4296-.3495.7791-.7792.7791s-.7791-.3495-.7791-.7791c0-.4297.3494-.7792.7791-.7792zm6.4739 14.3714h-7.0717c-.3559 0-.6446.2887-.6446.6446 0 .3561.2887.6445.6446.6445h5.648v1.5583h-.7795c-.3558 0-.6445.2884-.6445.6445 0 .3562.2887.6446.6445.6446h.7792v2.9823h-10.1004v-2.982h.7792c.3558 0 .6445-.2884.6445-.6445 0-.3562-.2887-.6446-.6445-.6446h-.7792v-1.5586h1.6986c.3562 0 .6446-.2884.6446-.6445 0-.3559-.2884-.6446-.6446-.6446h-3.1226v-1.5583h12.9484zm1.4237-2.8473h-15.7955v-1.5583h13.5906.0014.0013 2.2022zm1.4237-9.1517-1.2844 2.0333h-1.6305c-.3558 0-.6445.2883-.6445.6445s.2887.6445.6445.6445h.8164l-1.8836 2.982h-4.695v-1.4911c0-.3559-.2883-.6446-.6445-.6446-.3558 0-.6445.2887-.6445.6446v1.4911h-4.6951l-1.8832-2.982h.8161c.3561 0 .6445-.2883.6445-.6445s-.2884-.6445-.6445-.6445h-1.6305l-1.284-2.0333v-.3579l8.2762-14.8279h.4005v11.6277c-.8255.2716-1.4237 1.0494-1.4237 1.9645 0 1.1407.9278 2.0686 2.0682 2.0686 1.1407 0 2.0685-.9279 2.0685-2.0686 0-.9151-.5982-1.6932-1.4236-1.9645v-11.6277h.4004l8.2763 14.8279z" mask="url(#b)" stroke-width="2"/></g></svg>