<svg fill="none" height="110" viewBox="0 0 110 110" width="110" xmlns="http://www.w3.org/2000/svg" xmlns:xlink="http://www.w3.org/1999/xlink"><filter id="a" color-interpolation-filters="sRGB" filterUnits="userSpaceOnUse" height="110" width="110" x="0" y="-.000977"><feFlood flood-opacity="0" result="BackgroundImageFix"/><feColorMatrix in="SourceAlpha" type="matrix" values="0 0 0 0 0 0 0 0 0 0 0 0 0 0 0 0 0 0 127 0"/><feOffset dy="5"/><feGaussianBlur stdDeviation="10"/><feColorMatrix type="matrix" values="0 0 0 0 0.890196 0 0 0 0 0.721569 0 0 0 0 0.45098 0 0 0 0.5 0"/><feBlend in2="BackgroundImageFix" mode="normal" result="effect1_dropShadow"/><feBlend in="SourceGraphic" in2="effect1_dropShadow" mode="normal" result="shape"/></filter><clipPath id="b"><path d="m33 27.999h44v44h-44z"/></clipPath><g filter="url(#a)"><path d="m20 14.999h70v70h-70z" fill="#e3b873"/></g><g clip-path="url(#b)" fill="#fff"><path d="m57.3697 27.999c-8.9906 0-16.305 7.3144-16.305 16.305v2.6738l-4.5399 7.8136c-.0571.0983-.0873.2101-.0873.3239v2.7138c0 .3561.2887.6445.6445.6445h3.9827l.0003 4.3385c0 1.9255 1.5664 3.4919 3.4919 3.4919h1.3112c.3559 0 .6442-.2887.6442-.6445 0-.3562-.2883-.6446-.6445-.6446h-1.3109c-1.2149 0-2.2028-.9883-2.2028-2.2028v-4.3385h1.8466c.3559 0 .6446-.2884.6446-.6445v-4.2711c0-.3558-.2887-.6445-.6446-.6445h-1.4236c-.3562 0-.6446.2887-.6446.6445 0 .3562.2884.6446.6446.6446h.7791v2.9819h-5.8296v-1.5582h2.2028c.3558 0 .6445-.2887.6445-.6446 0-.3562-.2887-.6445-.6445-.6445h-1.6496l3.9783-6.8475c.0607-.0987.0957-.2145.0957-.338v-2.8477c0-8.2796 6.736-15.0159 15.0159-15.0159 8.2802 0 15.0162 6.7363 15.0162 15.0159v5.6947c0 6.1932-3.7037 11.6546-9.4457 13.948h-1.6553c-.3562 0-.6446.2884-.6446.6446 0 .3561.2884.6445.6446.6445h1.1353v5.4742h-11.8802v-4.406h1.4908c.3562 0 .6445-.2884.6445-.6445 0-.3559-.2883-.6446-.6445-.6446h-2.1337-.0017-1.4451c-.3558 0-.6445.2884-.6445.6446 0 .3558.2887.6445.6445.6445h.8006v5.0505c0 .3562.2887.6445.6445.6445h13.1693c.3558 0 .6445-.2883.6445-.6445v-6.3295c2.8467-1.2011 5.2791-3.1737 7.055-5.7263 1.904-2.7375 2.9108-5.9531 2.9108-9.3v-5.6947c0-8.9906-7.3145-16.305-16.3053-16.305z"/><path d="m48.885 43.5923c0 1.7396.523 3.411 1.513 4.834.8818 1.2676 2.0749 2.2596 3.4697 2.89v1.3304h-.0671c-.3562 0-.6446.2883-.6446.6445 0 .3558.2884.6445.6446.6445h.0671v1.7581c0 .3558.2887.6445.6445.6445h.0675v1.4911c0 .3559.2887.6446.6445.6446h4.2711c.3558 0 .6445-.2887.6445-.6446v-1.4911h.0675c.3558 0 .6445-.2887.6445-.6445v-1.7581h.0671c.3562 0 .6446-.2887.6446-.6445 0-.3562-.2884-.6445-.6446-.6445h-.0671v-1.3304c1.3948-.6304 2.5879-1.6224 3.4697-2.89.9897-1.423 1.513-3.0944 1.513-4.834 0-4.6731-3.8017-8.4749-8.4749-8.4749-4.6729 0-8.4746 3.8018-8.4746 8.4749zm6.9838 2.0683h.5122l1.2347 1.235c.1209.1208.285.189.4559.189s.335-.0682.4559-.189l.3232-.3233v3.6718h-2.9819zm2.9819 11.5243h-2.9819v-.8466h2.9819zm.712-2.1357h-4.4059v-1.1135h4.4059zm-4.4059-2.4025v-1.1135h4.4059v1.1135zm2.2031-16.2402c3.9622 0 7.1855 3.2237 7.1855 7.1858 0 2.9223-1.7234 5.5034-4.4056 6.627v-5.2033s0 0 0-.0003v-.7117c0-.3558-.2887-.6445-.6445-.6445-.3562 0-.6446.2887-.6446.6445v.4451l-.7791.7792-.9678-.9682c-.1209-.1208-.285-.1886-.4559-.1886h-.7791v-.0675c0-.3558-.2884-.6445-.6446-.6445-.3558 0-.6445.2887-.6445.6445v5.9153c-2.6822-1.1236-4.4056-3.7047-4.4056-6.627 0-3.9621 3.2233-7.1858 7.1858-7.1858z"/><path d="m58.0041 33.6263v-2.1353c0-.3562-.2884-.6446-.6445-.6446-.3559 0-.6446.2884-.6446.6446v2.1353c0 .3562.2887.6445.6446.6445.3561 0 .6445-.2883.6445-.6445z"/><path d="m49.1955 34.6056c-.2517-.2515-.6599-.2515-.9117 0-.2514.2517-.2514.6599 0 .9117l1.5103 1.51c.1259.1258.2907.189.4558.189.1649 0 .3297-.0632.4556-.189.2518-.2518.2518-.6597 0-.9114z"/><path d="m47.3049 43.0369h-2.1356c-.3559 0-.6446.2887-.6446.6445 0 .3562.2887.6445.6446.6445h2.1356c.3559 0 .6446-.2883.6446-.6445 0-.3558-.2887-.6445-.6446-.6445z"/><path d="m49.7944 50.3354-1.5103 1.5103c-.2518.2518-.2518.6597 0 .9114.1259.1259.2907.1887.4555.1887.1652 0 .33-.0628.4559-.1887l1.5103-1.5099c.2518-.2518.2518-.66 0-.9118-.2518-.2517-.66-.2514-.9114 0z"/><path d="m64.014 50.3353c-.2517.2518-.2517.6596 0 .9114l1.51 1.5103c.1259.1259.291.1887.4558.1887.1649 0 .33-.0628.4559-.1887.2518-.2518.2518-.66 0-.9117l-1.5103-1.51c-.2517-.2518-.6596-.2518-.9114 0z"/><path d="m69.5503 44.3259c.3562 0 .6445-.2887.6445-.6445 0-.3562-.2883-.6445-.6445-.6445h-2.1357c-.3562 0-.6445.2883-.6445.6445 0 .3558.2883.6445.6445.6445z"/><path d="m65.524 34.6053-1.5103 1.5103c-.2514.2518-.2514.6597.0003.9114.1256.1259.2907.1887.4556.1887.1648 0 .33-.0628.4558-.1887l1.51-1.5103c.2518-.2517.2518-.6596 0-.9114-.2514-.2517-.6596-.2517-.9114 0z"/></g></svg>