<svg fill="none" height="110" viewBox="0 0 110 110" width="110" xmlns="http://www.w3.org/2000/svg" xmlns:xlink="http://www.w3.org/1999/xlink"><filter id="a" color-interpolation-filters="sRGB" filterUnits="userSpaceOnUse" height="110" width="110" x="0" y="-.000977"><feFlood flood-opacity="0" result="BackgroundImageFix"/><feColorMatrix in="SourceAlpha" type="matrix" values="0 0 0 0 0 0 0 0 0 0 0 0 0 0 0 0 0 0 127 0"/><feOffset dy="5"/><feGaussianBlur stdDeviation="10"/><feColorMatrix type="matrix" values="0 0 0 0 0.890196 0 0 0 0 0.721569 0 0 0 0 0.45098 0 0 0 0.5 0"/><feBlend in2="BackgroundImageFix" mode="normal" result="effect1_dropShadow"/><feBlend in="SourceGraphic" in2="effect1_dropShadow" mode="normal" result="shape"/></filter><g filter="url(#a)"><path d="m20 14.999h70v70h-70z" fill="#e3b873"/></g><g fill="#fff"><path d="m77 42.1814c0-1.9255-1.5663-3.4919-3.4919-3.4919h-4.3385v-2.2028c0-.3558-.2883-.6445-.6445-.6445h-1.4912v-3.6265c0-.3559-.2883-.6446-.6445-.6446h-5.0502v-.7791c0-.3558-.2887-.6445-.6445-.6445h-11.3897c-.3559 0-.6446.2887-.6446.6445v.7791h-5.0501c-.3562 0-.6446.2887-.6446.6446v3.6265h-1.4911c-.3559 0-.6446.2887-.6446.6445v2.2028h-4.3381c-1.9256 0-3.4919 1.5664-3.4919 3.4919v8.5424c0 .3562.2887.6445.6445.6445h.7788v15.0163c0 1.9255 1.5667 3.4918 3.4919 3.4918h34.1692c1.9256 0 3.4919-1.5663 3.4919-3.4918v-15.0163h.7792c.1708 0 .335-.0678.4558-.1886.1209-.1209.1887-.2847.1887-.4559zm-9.1194-5.0502v1.5583h-2.982v-1.5583zm-17.9311-5.6947h10.1007v1.5583h-10.1007zm-7.8304 5.6947h2.9823v1.5583h-2.9823zm32.1682 29.2534c0 1.2148-.9883 2.2028-2.2029 2.2028h-34.1692c-1.2145 0-2.2028-.988-2.2028-2.2028v-15.0163h4.4056v1.5583h-.7791c-.3558 0-.6445.2887-.6445.6445v2.8474c0 .3558.2887.6445.6445.6445h.7791v2.2028c0 .2444.138.4673.3565.5764l2.8474 1.424c.0906.0457.1893.0682.2884.0682.0987 0 .1973-.0225.288-.0682l2.8473-1.424c.2182-.1091.3565-.332.3565-.5764v-2.2028h.7789c.3561 0 .6445-.2887.6445-.6445v-2.8474c0-.3558-.2884-.6445-.6445-.6445h-.7789v-1.5583h4.4057v2.9148c0 .3559.2887.6446.6445.6446h5.6951c.3558 0 .6445-.2887.6445-.6446v-2.9148h4.4056v1.5583h-.7791c-.3562 0-.6446.2887-.6446.6445v2.8474c0 .3558.2884.6445.6446.6445h.7791v2.2028c0 .2441.1377.4673.3562.5764l2.8473 1.424c.0907.0457.1897.0682.2884.0682s.1974-.0225.2884-.0682l2.8473-1.424c.2182-.1091.3562-.332.3562-.5764v-2.2028h.7791c.3562 0 .6446-.2887.6446-.6445v-2.8474c0-.3558-.2884-.6445-.6446-.6445h-.7791v-1.5583h4.406zm-32.8799-15.6591c0-.0004 0-.001 0-.0017 0-.0004 0-.001 0-.0017v-2.2011h4.4057v4.4056h-4.4057zm-1.4236-3.4936v-1.5586h7.253v1.5586zm7.253 6.9838v1.5583h-7.253v-1.5583zm-1.4237 2.8473v1.8047l-2.2028 1.1018-2.2029-1.1018v-1.8047zm8.5424-5.6947v.7792c0 .3561.2883.6445.6445.6445.3558 0 .6445-.2884.6445-.6445v-.7792h1.5583v2.2703h-4.406v-2.2703zm-1.5587-1.289v-.8463h4.406v.8463zm11.3898.6462c0-.0004 0-.001 0-.0017 0-.0004 0-.001 0-.0017v-2.2011h4.4056v4.4056h-4.4056zm-1.4237-3.4936v-1.5586h7.253v1.5586zm7.253 6.9838v1.5583h-7.253v-1.5583zm-1.4237 2.8473v1.8047l-2.2028 1.1018-2.2028-1.1018v-1.8047zm6.3423-6.9837c-.001 0-.0017 0-.0027 0-.0007 0-.0017 0-.0024 0h-5.0481v-1.5583h.7791c.3562 0 .6446-.2887.6446-.6446v-2.2028h.0674c.3562 0 .6446-.2887.6446-.6445 0-.3562-.2884-.6445-.6446-.6445h-9.9657c-.3562 0-.6445.2883-.6445.6445 0 .3558.2883.6445.6445.6445h.0671v2.2028c0 .3559.2887.6446.6446.6446h.7791v1.5583h-4.4056v-1.4909c0-.3561-.2887-.6445-.6445-.6445h-5.6951c-.3558 0-.6445.2884-.6445.6445v1.4909h-4.4057v-1.5583h.7792c.3558 0 .6445-.2887.6445-.6446v-2.2028h.0675c.3558 0 .6445-.2887.6445-.6445 0-.3562-.2887-.6445-.6445-.6445h-9.9661c-.3558 0-.6445.2883-.6445.6445 0 .3558.2887.6445.6445.6445h.0675v2.2028c0 .3559.2884.6446.6445.6446h.7792v1.5583h-5.8293v-7.8979c0-1.2145.9882-2.2028 2.2028-2.2028h12.1014c.3558 0 .6445-.2887.6445-.6446 0-.3558-.2887-.6445-.6445-.6445h-2.2028v-2.2028c0-.3558-.2887-.6445-.6446-.6445h-1.4911v-2.982h4.4056v.7791c0 .3562.2887.6446.6446.6446h11.3897c.3558 0 .6445-.2884.6445-.6446v-.7791h4.406v2.982h-1.4911c-.3562 0-.6446.2887-.6446.6445v2.2028h-12.4341c-.3558 0-.6445.2887-.6445.6445 0 .3559.2887.6446.6445.6446h22.3327c1.2146 0 2.2028.9883 2.2028 2.2028v7.8979z"/><path d="m37.271 66.3843c0 .3561.2884.6445.6446.6445h34.1688c.3559 0 .6446-.2884.6446-.6445 0-.3559-.2887-.6446-.6446-.6446h-34.1688c-.3562 0-.6446.2887-.6446.6446z"/></g></svg>