<svg fill="none" height="29" viewBox="0 0 29 29" width="29" xmlns="http://www.w3.org/2000/svg" xmlns:xlink="http://www.w3.org/1999/xlink"><clipPath id="a"><path d="m0 0h29v29h-29z"/></clipPath><g clip-path="url(#a)"><path d="m14.5 9.35478c1.8054 0 3.2742-1.46877 3.2742-3.27419s-1.4688-3.27419-3.2742-3.27419-3.2742 1.46877-3.2742 3.27419 1.4688 3.27419 3.2742 3.27419zm0-5.6129c1.2895 0 2.3387 1.04922 2.3387 2.33871 0 1.12916-.8051 2.074-1.871 2.29143v-1.82369h-.9355v1.82369c-1.0659-.21743-1.8709-1.16182-1.8709-2.29143 0-1.28949 1.0492-2.33871 2.3387-2.33871z" fill="#e3b873"/><path d="m14.0322 5.14523c0-.25832.2094-.46774.4677-.46774.2584 0 .4678.20942.4678.46774 0 .25833-.2094.46774-.4678.46774-.2583 0-.4677-.20941-.4677-.46774z" fill="#e3b873"/><path d="m14.5011 6.69775v1.75089" stroke="#e3b873" stroke-linecap="round"/><path d="m27.1683 22.1373-2.378-.5284v-.6836c.8471-.5925 1.4032-1.5734 1.4032-2.6829v-.9355c0-1.646-1.2221-3.0086-2.8064-3.2367v-2.225l-4.3225-1.7294.6676-.66732-.6681-1.00195c.1348-.25968.2472-.53055.3355-.81009l1.181-.23684v-2.63791l-1.1805-.23638c-.0884-.27955-.2012-.55042-.3355-.8101l.668-1.00194-1.8648-1.864803-1.0019.668043c-.2597-.13475-.5306-.24712-.8101-.33551l-.2369-1.181h-2.6378l-.2364 1.18055c-.2796.08838-.5505.20121-.8101.3355l-1.002-.668039-1.86478 1.864799.66804 1.00195c-.13475.25968-.24712.53055-.3355.8101l-1.18101.23683v2.63791l1.18055.23638c.08839.27955.20121.55042.3355.8101l-.66803 1.00194.66758.66738-4.32205 1.7293v2.225c-1.58434.2282-2.80645 1.5907-2.80645 3.2368v.9354c0 1.11.55613 2.0909 1.40323 2.6829v.6834l-2.378.5287c-1.078679.2398-1.83168 1.1787-1.83168 2.283v4.5801h29v-4.5801c0-1.1043-.753-2.0432-1.8317-2.2826zm-3.3135-.282c-.116.179-.4382.5963-.9354.5963s-.8195-.4177-.9355-.5963v-.4767c.2964.0884.6105.1375.9355.1375s.639-.0491.9354-.1379zm1.4033-4.5488v.9354c0 1.2895-1.0493 2.3387-2.3387 2.3387-1.2895 0-2.3388-1.0492-2.3388-2.3387v-.9354c0-1.2895 1.0493-2.3388 2.3388-2.3388 1.2894 0 2.3387 1.0493 2.3387 2.3388zm-2.8065-4.8287v1.5919c-1.5843.2282-2.8064 1.5907-2.8064 3.2368v.9354c0 1.11.5561 2.0909 1.4032 2.6829v.6834l-2.3387.5198-2.3387-.5198v-.6834c.8471-.5924 1.4032-1.5733 1.4032-2.6829v-.9354c0-1.6461-1.2221-3.0086-2.8065-3.2368v-1.9084h.8512l.2364-1.1806c.2796-.0883.5505-.2012.8101-.3355l1.002.6681.4775-.4776zm-2.8064 15.5867h-10.29036v-3.6446c0-.6628.45175-1.226 1.09876-1.3701l2.4289-.5397c.2675.3544.7994.877 1.6175.877s1.35-.5226 1.6175-.8766l2.4289.5397c.647.1437 1.0988.7073 1.0988 1.3697zm-5.1452-13.0968c1.2895 0 2.3387 1.0493 2.3387 2.3388v.9354c0 1.2895-1.0492 2.3387-2.3387 2.3387s-2.3387-1.0492-2.3387-2.3387v-.9354c0-1.2895 1.0492-2.3388 2.3387-2.3388zm0 6.5484c.325 0 .639-.0491.9355-.1379v.4766c-.116.1795-.4383.5968-.9355.5968s-.8195-.4177-.9355-.5963v-.4767c.2965.0884.6105.1375.9355.1375zm-5.14516-14.88344v-1.10403l.99716-.19962.0726-.28525c.0996-.39215.2544-.76579.4598-1.11089l.1509-.25351-.5643-.84664.7806-.78064.8467.56458.2535-.15119c.3451-.20533.7187-.36063 1.1109-.45975l.2852-.07263.2001-.997606h1.104l.1996.997146.2853.07263c.3921.09958.7658.25443 1.1109.45975l.2535.15096.8466-.56435.7807.78064-.5646.84664.1512.25351c.2053.3451.3606.71874.4597 1.11089l.0727.28526.9976.20007v1.10403l-.9972.19962-.0726.28525c-.0996.39215-.2544.76579-.4598 1.11089l-.1509.25351.5643.84664-.7806.78063-.8467-.56457-.2535.15119c-.3451.20533-.7187.36068-1.1109.45978l-.2852.0726-.2001.9976h-1.104l-.1996-.9971-.2853-.0727c-.3921-.0995-.7658-.2544-1.1109-.45972l-.2535-.15096-.8466.56438-.7807-.78067.5646-.84664-.1512-.25351c-.2053-.3451-.3606-.71874-.4597-1.11089l-.0727-.28526zm1.30026 4.20264.4775.4775 1.002-.668c.2596.1347.5305.2471.8101.3355l.2364 1.181h.8512v1.9084c-1.5844.2282-2.8065 1.5907-2.8065 3.2368v.9354c0 1.11.5561 2.0909 1.4032 2.6829v.6834l-2.3387.5198-2.33869-.5198v-.6834c.8471-.5924 1.40323-1.5733 1.40323-2.6829v-.9354c0-1.6461-1.22211-3.0086-2.80645-3.2368v-1.5919zm-6.91316 7.4066v-.9354c0-1.2895 1.04922-2.3388 2.33871-2.3388 1.28948 0 2.3387 1.0493 2.3387 2.3388v.9354c0 1.2895-1.04922 2.3387-2.3387 2.3387-1.28949 0-2.33871-1.0492-2.33871-2.3387zm2.33871 3.2742c.32499 0 .63903-.0491.93548-.1379v.4766c-.11602.1795-.43828.5968-.93548.5968-.49812 0-.82084-.4191-.93549-.5963v-.4771c.29645.0888.61049.1379.93549.1379zm-5.145166 2.9038c0-.6628.451756-1.226 1.098786-1.3701l2.42892-.5397c.26744.3544.79936.877 1.61746.877.81809 0 1.35001-.5226 1.61745-.8766l1.36577.3036c-.40037.4213-.64452.9846-.64452 1.6058v3.6446h-7.483866zm27.129016 3.6446h-7.4839v-3.6446c0-.6212-.2441-1.1849-.6445-1.6063l1.3658-.3035c.2674.3544.7994.877 1.6175.877.818 0 1.35-.5226 1.6174-.8766l2.4289.5397c.6471.1437 1.0988.7073 1.0988 1.3697z" fill="#e3b873"/></g></svg>